<?xml version="1.0" standalone="no"?>
<!DOCTYPE svg PUBLIC "-//W3C//DTD SVG 20010904//EN"
 "http://www.w3.org/TR/2001/REC-SVG-20010904/DTD/svg10.dtd">
<svg version="1.0" xmlns="http://www.w3.org/2000/svg"
 width="260.000000pt" height="260.000000pt" viewBox="0 0 260.000000 260.000000"
 preserveAspectRatio="xMidYMid meet">
<metadata>
Created by potrace 1.11, written by Peter Selinger 2001-2013
</metadata>
<g transform="translate(0.000000,260.000000) scale(0.100000,-0.100000)"
fill="#000000" stroke="none">
<path d="M328 1963 c-17 -4 -18 -25 -18 -249 l0 -244 30 0 30 0 0 94 0 94 55
4 c89 7 126 53 126 159 1 105 -44 150 -148 148 -32 -1 -66 -3 -75 -6z m152
-71 c28 -35 28 -120 -1 -156 -17 -21 -29 -26 -65 -26 l-44 0 0 104 c0 101 1
105 23 108 39 6 67 -4 87 -30z"/>
<path d="M942 1953 c-65 -32 -102 -115 -102 -232 0 -88 11 -135 43 -181 51
-75 117 -96 191 -60 58 28 91 82 105 170 34 216 -91 375 -237 303z m138 -61
c36 -36 50 -87 50 -180 0 -125 -48 -202 -126 -202 -35 0 -89 55 -103 105 -14
53 -14 158 1 207 28 96 117 130 178 70z"/>
<path d="M1513 1963 c-10 -3 -13 -63 -13 -249 l0 -244 25 0 25 0 0 105 0 105
35 0 c43 0 54 -17 86 -127 21 -78 24 -83 50 -83 l27 0 -32 103 c-18 57 -36
109 -40 116 -5 7 2 21 17 35 45 41 56 130 25 189 -18 35 -69 57 -133 56 -33 0
-66 -3 -72 -6z m146 -58 c21 -12 30 -75 18 -113 -13 -41 -45 -62 -94 -62 l-33
0 0 94 c0 90 1 95 23 98 22 4 68 -5 86 -17z"/>
<path d="M2037 1964 c-4 -4 -7 -16 -7 -26 0 -15 8 -18 55 -18 l55 0 0 -225 0
-225 25 0 25 0 0 225 0 225 56 0 c52 0 55 1 52 23 -3 21 -7 22 -129 25 -69 1
-128 -1 -132 -4z"/>
<path d="M120 920 l0 -250 25 0 25 0 0 120 0 120 75 0 c68 0 75 2 75 20 0 18
-7 20 -75 20 l-75 0 0 85 0 85 81 0 c78 0 80 1 77 23 -3 21 -8 22 -105 25
l-103 3 0 -251z"/>
<path d="M719 1148 c-21 -14 -45 -46 -64 -83 -27 -53 -30 -69 -29 -151 0 -79
4 -99 28 -147 77 -158 259 -130 307 47 18 66 7 203 -20 259 -44 92 -145 125
-222 75z m132 -38 c57 -31 88 -198 55 -298 -38 -114 -141 -136 -198 -43 -18
28 -23 55 -26 129 -5 106 12 168 55 202 28 22 82 26 114 10z"/>
<path d="M1287 1164 c-4 -4 -7 -117 -7 -251 l0 -243 116 0 c114 0 115 0 112
23 -3 20 -9 22 -85 25 l-83 3 -2 222 c-3 215 -4 222 -23 225 -12 2 -24 0 -28
-4z"/>
<path d="M1790 921 l0 -251 25 0 25 0 -2 248 -3 247 -22 3 -23 3 0 -250z"/>
<path d="M2230 1148 c-55 -37 -84 -107 -89 -211 -4 -115 11 -168 63 -223 52
-54 99 -65 164 -38 145 60 160 379 23 471 -46 31 -116 31 -161 1z m150 -56
c36 -36 50 -88 50 -182 -1 -163 -99 -253 -185 -167 -40 40 -55 89 -55 182 0
76 32 163 67 184 36 21 92 13 123 -17z"/>
</g>
</svg>
